#!OML:ASF I:\Actors\actors\Patient Classification 2\Patient 1\Session 1\actor1.ASF
:FULLY-SPECIFIED
:DEGREES
697
root -1.09026 18.0363 5.2157 -1.65853 -1.16256 -2.23403
lowerback 2.74024 0.841807 0.936364
upperback -1.28214 1.17395 0.522359
thorax -2.84479 0.57281 -0.0488773
lowerneck -10.5538 -2.50434 -1.04261
upperneck 17.0902 -3.73346 2.6098
head 7.03459 -1.63512 0.673458
rclavicle 5.37961e-015 3.08116e-015
rhumerus -54.2187 -11.4518 -78.9389
rradius 46.1808
rwrist 11.9525
rhand -5.12468 -45.8058
rfingers 7.12502
rthumb 20.6736 -74.7247
lclavicle 5.37961e-015 3.08116e-015
lhumerus -48.5237 14.8054 76.6185
lradius 36.32
lwrist -2.02314
lhand -9.94397 -14.7972
lfingers 7.12502
lthumb 16.0376 14.5591
rfemur 18.6665 1.28065 18.5512
rtibia -11.9214
rfoot -13.6948 -13.2284
rtoes 4.28371
lfemur 19.1173 -8.06003 -12.8096
ltibia -13.0598
lfoot -7.58159 18.4329
ltoes -5.20661
698
root -1.08802 18.0338 5.20945 -1.75967 -1.14527 -2.38793
lowerback 2.77558 0.887 1.01097
upperback -1.28085 1.23857 0.554827
thorax -2.8621 0.603856 -0.061226
lowerneck -10.5339 -2.6026 -1.20003
upperneck 17.2963 -3.86348 2.70032
head 7.10531 -1.69779 0.716001
rclavicle -7.16246e-015 -4.96962e-016
rhumerus -54.0012 -11.4823 -79.4283
rradius 46.458
rwrist 11.8534
rhand -4.98344 -45.9618
rfingers 7.12502
rthumb 20.8093 -74.8659
lclavicle -7.16246e-015 -4.96962e-016
lhumerus -48.1628 14.1568 77.5252
lradius 36.788
lwrist -1.16805
lhand -9.88892 -14.6904
lfingers 7.12502
lthumb 16.0906 14.6616
rfemur 18.6586 1.26847 18.7173
rtibia -11.7308
rfoot -13.7551 -13.187
rtoes 4.08998
lfemur 19.2637 -8.08313 -12.6526
ltibia -13.1762
lfoot -7.57174 18.4093
ltoes -5.10006
699
root -1.08457 18.033 5.20156 -1.85883 -1.08083 -2.43308
lowerback 2.85294 0.899364 1.00339
upperback -1.2998 1.25572 0.539643
thorax -2.92488 0.612042 -0.0750079
lowerneck -10.5484 -2.67927 -1.30018
upperneck 17.5822 -3.98132 2.81292
head 7.20755 -1.74774 0.756624
rclavicle -8.29305e-015 8.34896e-015
rhumerus -53.8009 -11.4381 -79.9872
rradius 46.6819
rwrist 11.6826
rhand -5.1323 -45.6844
rfingers 7.12502
rthumb 20.6663 -74.6042
lclavicle -8.29305e-015 8.34896e-015
lhumerus -47.7851 13.5801 78.3391
lradius 37.2163
lwrist -0.337055
lhand -9.67947 -14.8912
lfingers 7.12502
lthumb 16.2923 14.4443
rfemur 18.6721 1.26716 18.7664
rtibia -11.5866
rfoot -13.8354 -13.2085
rtoes 3.9558
lfemur 19.3603 -8.08773 -12.6094
ltibia -13.2612
lfoot -7.46482 18.332
ltoes -5.32476
700
root -1.07997 18.033 5.19388 -1.93841 -1.05392 -2.46781
lowerback 2.92272 0.933256 1.0027
upperback -1.32466 1.3015 0.513523
thorax -2.98886 0.634221 -0.105399
lowerneck -10.4694 -2.69907 -1.29704
upperneck 17.7908 -4.03758 2.92305
head 7.26501 -1.7632 0.786826
rclavicle 7.442e-015 -2.98177e-015
rhumerus -53.614 -11.2089 -80.6548
rradius 46.8742
rwrist 11.2394
rhand -5.55031 -45.2187
rfingers 7.12502
rthumb 20.2646 -74.1816
lclavicle 7.442e-015 -2.98177e-015
lhumerus -47.3702 13.0316 79.1095
lradius 37.5217
lwrist 0.423386
lhand -9.50473 -15.8384
lfingers 7.12502
lthumb 16.4605 13.4833
rfemur 18.7069 1.3177 18.8034
rtibia -11.5304
rfoot -13.9091 -13.2573
rtoes 4.11104
lfemur 19.4102 -8.02605 -12.573
ltibia -13.2783
lfoot -7.38684 18.2351
ltoes -5.47965
701
root -1.07464 18.0337 5.18589 -1.9706 -1.07546 -2.45589
lowerback 2.91291 0.999218 0.928689
upperback -1.31961 1.38634 0.517248
thorax -2.97922 0.678054 -0.0644846
lowerneck -10.4367 -2.74284 -1.38267
upperneck 17.9603 -4.10593 3.01553
head 7.31978 -1.79173 0.824377
rclavicle 2.09594e-014 1.11319e-014
rhumerus -53.3622 -10.8443 -81.2854
rradius 47.0545
rwrist 10.8785
rhand -5.83379 -44.8946
rfingers 7.12502
rthumb 19.9921 -73.8862
lclavicle 2.09594e-014 1.11319e-014
lhumerus -46.8976 12.3133 80.0986
lradius 37.8449
lwrist 1.04954
lhand -9.59664 -17.1644
lfingers 7.12502
lthumb 16.372 12.1645
rfemur 18.7171 1.42578 18.7901
rtibia -11.545
rfoot -13.9611 -13.3276
rtoes 4.24626
lfemur 19.4009 -7.99309 -12.6033
ltibia -13.252
lfoot -7.39905 18.2058
ltoes -5.57624
702
root -1.06907 18.0344 5.17627 -1.98435 -1.10446 -2.35522
lowerback 2.86977 1.05814 0.746632
upperback -1.29384 1.45663 0.516398
thorax -2.9323 0.716861 0.0339399
lowerneck -10.3967 -2.79979 -1.48752
upperneck 18.0478 -4.1804 3.07697
head 7.34656 -1.82831 0.854818
rclavicle 2.2823e-014 8.74653e-015
rhumerus -53.0159 -10.3541 -81.9358
rradius 47.1961
rwrist 10.5332
rhand -6.1457 -44.6533
rfingers 7.12502
rthumb 19.6923 -73.6759
lclavicle 2.2823e-014 8.74653e-015
lhumerus -46.387 11.495 81.2217
lradius 38.3211
lwrist 1.6629
lhand -9.58306 -17.9044
lfingers 7.12502
lthumb 16.3851 11.4235
rfemur 18.7056 1.49186 18.67
rtibia -11.5754
rfoot -13.9295 -13.3927
rtoes 4.01949
lfemur 19.3577 -7.90362 -12.718
ltibia -13.219
lfoot -7.37991 18.1453
ltoes -5.74793
703
root -1.06249 18.0353 5.16818 -1.95898 -1.1956 -2.34521
lowerback 2.76512 1.10781 0.664708
upperback -1.27977 1.51883 0.53608
thorax -2.86126 0.749916 0.0990979
lowerneck -10.2905 -2.81952 -1.53606
upperneck 18.0746 -4.2063 3.10747
head 7.33872 -1.84213 0.87168
rclavicle 2.38542e-015 -9.14409e-015
rhumerus -52.6554 -9.71841 -82.6621
rradius 47.2864
rwrist 10.0638
rhand -6.72201 -44.4479
rfingers 7.12502
rthumb 19.1382 -73.5262
lclavicle 2.38542e-015 -9.14409e-015
lhumerus -45.8834 10.7449 82.2517
lradius 38.8214
lwrist 2.23164
lhand -9.43854 -18.3449
lfingers 7.12502
lthumb 16.5243 10.9714
rfemur 18.6621 1.57109 18.6438
rtibia -11.6343
rfoot -13.8263 -13.4449
rtoes 3.82125
lfemur 19.2805 -7.74107 -12.7197
ltibia -13.1611
lfoot -7.35505 18.0755
ltoes -5.87531
704
root -1.05443 18.038 5.1616 -1.82085 -1.31476 -2.43212
lowerback 2.50411 1.1661 0.696265
upperback -1.27795 1.59575 0.570406
thorax -2.71238 0.788594 0.118601
lowerneck -10.1948 -2.83392 -1.60562
upperneck 18.1189 -4.23244 3.19321
head 7.34022 -1.85222 0.909761
rclavicle 9.06955e-016 9.93923e-015
rhumerus -52.2972 -9.10502 -83.3539
rradius 47.3276
rwrist 9.62441
rhand -7.30374 -44.1058
rfingers 7.12502
rthumb 18.5787 -73.2386
lclavicle 9.06955e-016 9.93923e-015
lhumerus -45.3846 9.87564 83.2768
lradius 39.3637
lwrist 2.84199
lhand -9.26389 -18.8247
lfingers 7.12502
lthumb 16.6924 10.4776
rfemur 18.5048 1.65609 18.7118
rtibia -11.7147
rfoot -13.7239 -13.4776
rtoes 3.88487
lfemur 19.1077 -7.69108 -12.6323
ltibia -13.1021
lfoot -7.40803 18.0997
ltoes -5.66254
705
root -1.04871 18.0396 5.15282 -1.7193 -1.37222 -2.46994
lowerback 2.2774 1.21731 0.64857
upperback -1.24317 1.65992 0.588342
thorax -2.55074 0.822232 0.166412
lowerneck -10.1137 -2.84009 -1.65473
upperneck 18.1257 -4.25393 3.30216
head 7.33207 -1.85684 0.952371
rclavicle -1.18153e-014 -1.27222e-014
rhumerus -51.9313 -8.53874 -83.9592
rradius 47.3869
rwrist 9.56089
rhand -7.28584 -43.7817
rfingers 7.12502
rthumb 18.5959 -72.9129
lclavicle -1.18153e-014 -1.27222e-014
lhumerus -44.9233 8.83097 84.363
lradius 40.1295
lwrist 3.50798
lhand -9.10901 -19.1064
lfingers 7.12502
lthumb 16.8415 10.1832
rfemur 18.3758 1.69865 18.7376
rtibia -11.757
rfoot -13.6836 -13.5047
rtoes 3.9331
lfemur 18.9696 -7.6061 -12.568
ltibia -13.0771
lfoot -7.44594 18.0223
ltoes -5.16361
706
root -1.04348 18.0385 5.14448 -1.74365 -1.44436 -2.48365
lowerback 2.18154 1.25444 0.577237
upperback -1.17529 1.70591 0.609206
thorax -2.42969 0.846978 0.228932
lowerneck -10.138 -2.87182 -1.74533
upperneck 18.2259 -4.30507 3.40551
head 7.37483 -1.87671 0.995489
rclavicle -2.68608e-014 2.5842e-015
rhumerus -51.5709 -8.00147 -84.4298
rradius 47.3539
rwrist 9.95501
rhand -6.78198 -43.5679
rfingers 7.12502
rthumb 19.0805 -72.652
lclavicle -2.68608e-014 2.5842e-015
lhumerus -43.8831 8.33385 85.1551
lradius 39.2758
lwrist 3.62698
lhand -9.25504 -20.3718
lfingers 7.12502
lthumb 16.7009 8.92981
rfemur 18.3825 1.69425 18.7344
rtibia -11.785
rfoot -13.6121 -13.4789
rtoes 3.8835
lfemur 18.9689 -7.43269 -12.5247
ltibia -13.0463
lfoot -7.49131 17.8877
ltoes -4.62245
707
root -1.03359 18.0386 5.14257 -1.69369 -1.5553 -2.51867
lowerback 1.96056 1.28918 0.619511
upperback -1.13326 1.75103 0.621222
thorax -2.26139 0.869467 0.221801
lowerneck -10.1699 -2.9108 -1.82787
upperneck 18.3662 -4.36497 3.4861
head 7.43177 -1.90173 1.02885
rclavicle -1.03617e-014 -1.59028e-014
rhumerus -51.2048 -7.49294 -84.8493
rradius 47.2225
rwrist 10.2033
rhand -6.60333 -43.1405
rfingers 7.12502
rthumb 19.2523 -72.2075
lclavicle -1.03617e-014 -1.59028e-014
lhumerus -44.2244 6.59394 86.3647
lradius 41.577
lwrist 5.02805
lhand -8.8984 -20.3397
lfingers 7.12502
lthumb 17.0442 8.93255
rfemur 18.3232 1.6152 18.7073
rtibia -11.8331
rfoot -13.4176 -13.3715
rtoes 3.6923
lfemur 18.9175 -7.4777 -12.5329
ltibia -12.994
lfoot -7.65681 18.0044
ltoes -4.04398
708
root -1.02207 18.0392 5.14414 -1.56263 -1.64865 -2.5067
lowerback 1.63284 1.33596 0.647614
upperback -1.11398 1.81028 0.618008
thorax -2.05645 0.899272 0.209263
lowerneck -10.1117 -2.90453 -1.83137
upperneck 18.4154 -4.35576 3.47507
head 7.43697 -1.89865 1.02746
rclavicle 1.86982e-014 -1.98785e-015
rhumerus -50.8835 -7.03393 -85.2441
rradius 47.2666
rwrist 10.3307
rhand -6.52107 -42.3422
rfingers 7.12502
rthumb 19.3314 -71.4013
lclavicle 1.86982e-014 -1.98785e-015
lhumerus -43.2139 6.45015 86.7894
lradius 40.3195
lwrist 4.75838
lhand -8.72434 -22.69
lfingers 7.12502
lthumb 17.2118 6.56772
rfemur 18.1698 1.554 18.6207
rtibia -11.8545
rfoot -13.2464 -13.2796
rtoes 3.47383
lfemur 18.7966 -7.63477 -12.6217
ltibia -12.9592
lfoot -7.82184 18.2241
ltoes -3.43011
709
root -1.01218 18.0404 5.14539 -1.43799 -1.73774 -2.47421
lowerback 1.3233 1.39916 0.624977
upperback -1.0989 1.89029 0.610203
thorax -1.86755 0.940085 0.219859
lowerneck -10.2572 -2.9984 -1.90405
upperneck 18.6994 -4.47326 3.43247
head 7.56015 -1.95859 1.01144
rclavicle 7.64079e-015 -7.95139e-016
rhumerus -50.6256 -6.68554 -85.5889
rradius 47.2962
rwrist 10.8757
rhand -6.664 -41.5048
rfingers 7.12502
rthumb 19.1939 -70.5777
lclavicle 7.64079e-015 -7.95139e-016
lhumerus -43.4942 5.04268 87.7399
lradius 42.4426
lwrist 5.75633
lhand -8.35059 -22.5386
lfingers 7.12502
lthumb 17.5715 6.68733
rfemur 18.0109 1.59108 18.538
rtibia -11.8488
rfoot -13.2095 -13.2603
rtoes 3.38931
lfemur 18.6876 -7.74754 -12.7194
ltibia -12.9316
lfoot -7.94813 18.3903
ltoes -3.13697
710
root -1.00376 18.0434 5.14699 -1.30828 -1.80163 -2.51043
lowerback 1.02889 1.44021 0.626909
upperback -1.11012 1.94227 0.630919
thorax -1.71442 0.966622 0.246506
lowerneck -10.5485 -3.19211 -2.02382
upperneck 19.2048 -4.7252 3.38017
head 7.78804 -2.08271 0.983271
rclavicle -1.6524e-015 1.78906e-015
rhumerus -50.4111 -6.35241 -85.9028
rradius 47.1207
rwrist 11.7781
rhand -7.20886 -41.1314
rfingers 7.12502
rthumb 18.6699 -70.2554
lclavicle -1.6524e-015 1.78906e-015
lhumerus -42.328 4.88737 88.1591
lradius 40.67
lwrist 5.62521
lhand -8.66998 -24.3465
lfingers 7.12502
lthumb 17.2641 4.90665
rfemur 17.8513 1.633 18.5404
rtibia -11.8428
rfoot -13.2227 -13.257
rtoes 3.41854
lfemur 18.5738 -7.93875 -12.7445
ltibia -12.9016
lfoot -8.11211 18.6227
ltoes -3.29652
